<?xml version="1.0" encoding="UTF-8"?>
<svg width="28px" height="24px" viewBox="0 0 28 24" version="1.1" xmlns="http://www.w3.org/2000/svg" xmlns:xlink="http://www.w3.org/1999/xlink">
    <!-- Generator: sketchtool 55 (78076) - https://sketchapp.com -->
    <title>7340A38D-00F4-4E26-A225-C9D174F6EF43</title>
    <desc>Created with sketchtool.</desc>
    <g id="Page-1" stroke="none" stroke-width="1" fill="none" fill-rule="evenodd">
        <g id="winners" transform="translate(-800.000000, -496.000000)" fill="#FFFFFF" fill-rule="nonzero">
            <g id="Group-6-Copy" transform="translate(413.000000, 461.000000)">
                <g id="Group-4">
                    <g id="Group-5" transform="translate(387.000000, 31.000000)">
                        <path d="M8.80544,27.8867188 C19.37152,27.8867188 25.15072,19.0372418 25.15072,11.3630153 C25.15072,11.1116612 25.15072,10.8614393 25.13392,10.6123496 C26.2582111,9.79025273 27.2287181,8.77234611 28,7.60629008 C26.9515445,8.07593935 25.8393288,8.3839352 24.70048,8.5199963 C25.8997133,7.79421925 26.7972583,6.65269778 27.22608,5.30787169 C26.0984164,5.98432601 24.8647236,6.46105728 23.57824,6.71749282 C21.7975327,4.80334539 18.9680057,4.33485108 16.6762952,5.57471458 C14.3845847,6.81457809 13.200628,9.45445139 13.78832,12.0140451 C9.16932323,11.7799569 4.86581287,9.57446455 1.9488,5.94644704 C0.424057487,8.59998209 1.20286643,11.9946382 3.72736,13.6987972 C2.81315015,13.6714058 1.9188729,13.4220961 1.12,12.9719082 C1.12,12.9956849 1.12,13.0205939 1.12,13.0455029 C1.12074831,15.8099374 3.04836167,18.1909429 5.7288,18.7383342 C4.88305395,18.9715049 3.99569026,19.0055897 3.13488,18.8379701 C3.88746168,21.2036685 6.04416351,22.8242924 8.50192,22.8709584 C6.46770324,24.4871337 3.95478665,25.3644907 1.36752,25.3618552 C0.910451997,25.3609682 0.453828553,25.3329919 0,25.2780705 C2.62711226,26.9823835 5.68390301,27.8863982 8.80544,27.8821898" id="Path"></path>
                    </g>
                </g>
            </g>
        </g>
    </g>
</svg>