<svg xmlns="http://www.w3.org/2000/svg" width="142" height="141" viewBox="0 0 142 141">
    <g fill="#00B0DF" fill-rule="nonzero">
        <path stroke="#00B0DF" stroke-width="1.5" d="M107.189 38.779c-.133 0-.263.022-.393.022C105.375 17.794 87.819 1 66.743 1 44.577 1 26.545 19.192 26.545 41.553c0 5.074.948 9.962 2.73 14.6a25.667 25.667 0 0 0-2.979-.191C12.35 55.962 1 67.409 1 81.48 1 95.55 12.35 107 26.296 107h83.021v-.107C126.97 105.775 141 90.974 141 72.889c0-18.812-15.166-34.11-33.811-34.11zm0 64.427H26.296c-11.878 0-21.538-9.745-21.538-21.728 0-11.982 9.66-21.727 21.538-21.727 1.889 0 3.765.249 5.58.732.151.045.297.03.446.03.012.005.024.01.034.01l.024-.001c.756 0 1.423-.468 1.706-1.193.016-.04.042-.075.052-.112.01-.03.032-.052.04-.083.034-.125.016-.244.024-.37.006-.103.026-.2.018-.307-.016-.13-.058-.249-.1-.37-.03-.101-.03-.2-.076-.295-2.478-5.074-3.737-10.538-3.737-16.24 0-20.27 16.347-36.762 36.44-36.762 19.102 0 35.016 15.219 36.308 34.258a33.267 33.267 0 0 0-10.47 3.07 1.903 1.903 0 0 0-.885 2.527 1.88 1.88 0 0 0 2.508.892 29.586 29.586 0 0 1 12.987-2.969c16.57 0 30.05 13.6 30.05 30.317-.003 16.722-13.485 30.321-30.056 30.321z"/>
        <path d="M51.999 68C54.205 68 56 65.475 56 62.366c0-1.775-.593-3.336-1.5-4.366l-6.368 2.99A7.801 7.801 0 0 0 48 62.365C47.998 65.476 49.788 68 51.999 68zM88.999 68C91.209 68 93 65.475 93 62.366a7.82 7.82 0 0 0-.132-1.377L86.5 58c-.907 1.03-1.5 2.589-1.5 4.366-.002 3.11 1.792 5.634 3.999 5.634zM93.153 77c-2.611 0-3.992 1.495-4.998 2.585-.904.981-1.349 1.414-2.386 1.414-1.038 0-1.483-.433-2.387-1.414C82.376 78.495 80.995 77 78.384 77c-2.61 0-3.991 1.495-4.997 2.585-.904.981-1.35 1.414-2.387 1.414-1.038 0-1.483-.433-2.387-1.414C67.607 78.495 66.227 77 63.616 77c-2.611 0-3.992 1.495-4.998 2.585-.904.981-1.349 1.414-2.387 1.414-1.037 0-1.482-.433-2.386-1.414C52.839 78.495 51.458 77 48.847 77 47.825 77 47 77.894 47 79c0 1.107.825 2.001 1.847 2.001 1.038 0 1.483.433 2.387 1.414C52.24 83.505 53.62 85 56.23 85c2.611 0 3.992-1.495 4.998-2.585.904-.981 1.349-1.414 2.387-1.414 1.037 0 1.482.433 2.386 1.414C67.01 83.505 68.39 85 71 85s3.991-1.495 4.998-2.585c.904-.981 1.349-1.414 2.386-1.414 1.038 0 1.483.433 2.387 1.414C81.777 83.505 83.158 85 85.769 85c2.61 0 3.991-1.495 4.997-2.585.904-.981 1.35-1.414 2.387-1.414 1.022 0 1.847-.894 1.847-2C95 77.894 94.175 77 93.153 77zM105.994 111.71c-1.201 1.663-3.994 5.775-3.994 8.022 0 2.906 2.468 5.268 5.5 5.268s5.5-2.364 5.5-5.268c0-2.245-2.793-6.36-3.994-8.023-.677-.945-2.331-.945-3.012 0zm1.508 9.778c-1.011 0-1.835-.789-1.835-1.754.016-.54.777-2.068 1.835-3.772 1.056 1.704 1.819 3.235 1.835 3.769 0 .97-.824 1.757-1.835 1.757zM91.008 111.71c-.68-.946-2.333-.946-3.014 0-1.201 1.663-3.994 5.775-3.994 8.022 0 2.906 2.468 5.268 5.5 5.268s5.5-2.364 5.5-5.268c.002-2.245-2.791-6.36-3.992-8.023zm-1.508 9.778c-1.011 0-1.835-.789-1.835-1.754.016-.54.777-2.068 1.835-3.772 1.056 1.704 1.819 3.235 1.835 3.769-.002.97-.824 1.757-1.835 1.757zM72.008 111.71c-.68-.946-2.333-.946-3.014 0-1.201 1.663-3.994 5.775-3.994 8.022 0 2.906 2.468 5.268 5.5 5.268s5.5-2.364 5.5-5.268c0-2.245-2.791-6.36-3.992-8.023zm-1.508 9.778c-1.011 0-1.835-.789-1.835-1.754.016-.54.777-2.068 1.835-3.772 1.056 1.704 1.819 3.235 1.835 3.769 0 .97-.824 1.757-1.835 1.757zM54.008 111.71c-.68-.946-2.333-.946-3.014 0-1.201 1.663-3.994 5.775-3.994 8.022 0 2.906 2.468 5.268 5.5 5.268s5.5-2.364 5.5-5.268c.002-2.245-2.791-6.36-3.992-8.023zm-1.508 9.778c-1.011 0-1.835-.789-1.835-1.754.016-.54.777-2.068 1.835-3.772 1.056 1.704 1.819 3.235 1.835 3.769-.002.97-.824 1.757-1.835 1.757zM35.008 111.71c-.68-.946-2.333-.946-3.014 0-1.201 1.663-3.994 5.775-3.994 8.022 0 2.906 2.468 5.268 5.5 5.268s5.5-2.364 5.5-5.268c0-2.245-2.791-6.36-3.992-8.023zm-1.508 9.778c-1.011 0-1.835-.789-1.835-1.754.016-.54.777-2.068 1.835-3.772 1.056 1.704 1.819 3.235 1.835 3.769 0 .97-.824 1.757-1.835 1.757zM97.994 127.71c-1.199 1.663-3.994 5.775-3.994 8.022 0 2.906 2.468 5.268 5.5 5.268s5.5-2.364 5.5-5.268c0-2.245-2.793-6.36-3.992-8.023-.68-.945-2.335-.945-3.014 0zm1.506 9.778c-1.011 0-1.835-.789-1.835-1.754.016-.54.777-2.068 1.835-3.772 1.056 1.704 1.82 3.235 1.835 3.769 0 .97-.824 1.757-1.835 1.757zM77.994 127.71c-1.199 1.663-3.994 5.775-3.994 8.022 0 2.906 2.468 5.268 5.5 5.268s5.5-2.364 5.5-5.268c0-2.245-2.793-6.36-3.992-8.023-.68-.945-2.335-.945-3.014 0zm1.506 9.778c-1.011 0-1.835-.789-1.835-1.754.016-.54.777-2.068 1.835-3.772 1.056 1.704 1.82 3.235 1.835 3.769 0 .97-.824 1.757-1.835 1.757zM60.994 127.71c-1.199 1.663-3.994 5.775-3.994 8.022 0 2.906 2.468 5.268 5.5 5.268s5.5-2.364 5.5-5.268c0-2.245-2.793-6.36-3.992-8.023-.68-.945-2.335-.945-3.014 0zm1.506 9.778c-1.011 0-1.835-.789-1.835-1.754.016-.54.777-2.068 1.835-3.772 1.056 1.704 1.82 3.235 1.835 3.769 0 .97-.824 1.757-1.835 1.757zM41.994 127.71c-1.199 1.663-3.994 5.775-3.994 8.022 0 2.906 2.468 5.268 5.5 5.268s5.5-2.364 5.5-5.268c0-2.245-2.793-6.36-3.992-8.023-.68-.945-2.335-.945-3.014 0zm1.506 9.778c-1.011 0-1.835-.789-1.835-1.754.016-.54.777-2.068 1.835-3.772 1.056 1.704 1.82 3.235 1.835 3.769 0 .97-.824 1.757-1.835 1.757z"/>
    </g>
</svg>
